<svg xmlns="http://www.w3.org/2000/svg" xmlns:xlink="http://www.w3.org/1999/xlink" version="1.1" id="Layer_1" x="0px" y="0px" width="69.24px" height="100px" viewBox="3.462 -10.0 69.24 135.0" enable-background="new 0 0 69.24 100" xml:space="preserve">
<path d="M28.971,44.036c-0.593-1.017-1.399-1.616-2.332-1.732c-0.08-0.01-0.161-0.01-0.24,0c-0.933,0.117-1.739,0.715-2.332,1.732  c-0.138,0.236-0.249,0.468-0.334,0.671l-5.701,0.306c-0.535,0.028-0.944,0.485-0.916,1.02c0.029,0.534,0.486,0.948,1.02,0.916  l6.346-0.34c0.418-0.022,0.776-0.315,0.885-0.72c0.128-0.476,0.567-1.448,1.154-1.635c0.586,0.187,1.025,1.16,1.153,1.632  c0.106,0.408,0.464,0.7,0.886,0.723l6.345,0.34c0.018,0.001,0.036,0.001,0.053,0.001c0.512,0,0.939-0.4,0.967-0.917  c0.028-0.535-0.381-0.991-0.916-1.02l-5.701-0.306C29.22,44.504,29.109,44.272,28.971,44.036z"/>
<polygon points="61.118,81.793 47.455,81.793 44.505,81.793 47.455,95 61.118,95 64.068,81.793 "/>
<path d="M63.557,79.659c-0.377,0-0.683-0.305-0.683-0.683c0-4.734-3.853-8.587-8.588-8.587c-4.734,0-8.587,3.853-8.587,8.587  c0,0.378-0.306,0.683-0.683,0.683s-0.683-0.305-0.683-0.683c0-5.487,4.465-9.952,9.952-9.952c5.488,0,9.953,4.465,9.953,9.952  C64.239,79.354,63.934,79.659,63.557,79.659z"/>
<path d="M20.875,28.159c-0.244-0.362-0.657-0.602-1.127-0.604c-0.753-0.004-1.368,0.604-1.372,1.358  c0,0.163,0.029,0.319,0.081,0.464c0.188,0.526,0.688,0.905,1.278,0.907c0.754,0.004,1.369-0.604,1.372-1.358  C21.109,28.643,21.023,28.378,20.875,28.159z"/>
<path d="M32.909,27.619c-0.445-0.002-0.841,0.21-1.092,0.539c-0.173,0.228-0.278,0.511-0.28,0.82  c-0.003,0.754,0.605,1.368,1.359,1.372c0.624,0.003,1.151-0.414,1.317-0.985c0.034-0.119,0.054-0.244,0.055-0.374  C34.271,28.237,33.663,27.623,32.909,27.619z"/>
<path d="M31.532,24.434c-1.539-3.679-5.169-3.959-5.169-3.959s-3.633,0.245-5.207,3.909l-2.004,0.69l2.815,0.101  c0,0,3.129-3.428,4.315-3.335c1.186-0.082,4.43,3.377,4.43,3.377l2.817-0.074L31.532,24.434z"/>
<g>
	<path d="M39.33,31.176c-0.654-0.27-1.307-0.519-1.947-0.752c0.186-0.639,0.197-1.293,0.125-1.837l2.77-2.362   c0.012-0.01,0.023-0.02,0.033-0.03c2.145-2.009,2.965-3.819,2.438-5.38c-0.682-2.018-3.375-2.763-4.752-3.016l-0.24-1.997v0   l-0.205-2.847c-0.121-3.38-2.132-5.832-5.82-7.091c-2.538-0.867-5.011-0.867-5.292-0.862c-0.282-0.008-2.755-0.032-5.301,0.811   c-3.699,1.224-5.734,3.656-5.887,7.034l-0.234,2.846l0,0l-0.26,1.995c-1.379,0.239-4.08,0.958-4.781,2.969   c-0.542,1.555,0.26,3.373,2.385,5.403c0.011,0.011,0.022,0.021,0.033,0.03l2.746,2.389c-0.082,0.578-0.071,1.282,0.145,1.963   c-0.625,0.229-1.262,0.473-1.899,0.734c-6.016,2.47-8.818,5.143-8.331,7.943c0.139,0.799,0.286,1.525,0.44,2.187v22.742   c0,2.482,2.02,4.504,4.502,4.504c0.952,0,1.835-0.299,2.563-0.805v0.055v21.102c0,3.361,2.734,6.098,6.098,6.098   c3.361,0,6.096-2.736,6.096-6.098V72.812l1.595,0.697l1.595-0.697v16.092c0,3.361,2.734,6.098,6.097,6.098   c3.363,0,6.097-2.736,6.097-6.098V67.802v-0.068c0.732,0.514,1.621,0.818,2.582,0.818c2.482,0,4.502-2.021,4.502-4.504V41.306   c0.154-0.661,0.301-1.388,0.439-2.187C48.148,36.319,45.346,33.646,39.33,31.176z M17.183,12.987l0.004-0.038   c0.107-2.537,1.629-4.314,4.518-5.283c2.326-0.779,4.68-0.729,4.701-0.727l0.023,0h0.021c0.023,0,2.377-0.03,4.695,0.772   c2.881,0.996,4.383,2.788,4.468,5.326l0.137,1.906l-10.048-0.049l-8.672-0.042L17.183,12.987z M13.684,24.643   c-1.472-1.41-2.139-2.598-1.879-3.347c0.385-1.108,2.799-1.682,3.906-1.786c0.452-0.041,0.813-0.39,0.872-0.84l0.245-1.88   l2.134,0.01c0.01,0.807,0.223,3.359,2.56,3.037l3.313-3.008l3.09,0.015l3.285,3.04c2.334,0.345,2.572-2.205,2.588-3.012l2.135,0.01   l0.227,1.883c0.055,0.45,0.412,0.803,0.865,0.849c1.105,0.112,3.51,0.704,3.887,1.822c0.254,0.751-0.424,1.933-1.91,3.329   l-3.186,2.718c-0.288,0.246-0.404,0.644-0.302,1.007c0.03,0.107,0.184,0.703,0.032,1.297c-0.105,0.419-0.363,0.836-0.922,1.08   c-0.342,0.108-0.855,0.229-1.398,0.301c-0.828,0.109-1.727,0.104-2.199-0.24c-0.115-0.084-0.256-0.229-0.319-0.541   c-0.019-0.092-0.031-0.196-0.033-0.32l0.198-1.601c0.033-0.264-0.045-0.53-0.214-0.735c-0.006-0.007-0.013-0.014-0.02-0.021   c-0.169-0.192-0.405-0.312-0.661-0.329l-0.742-0.051l-0.201-0.014v-0.027l0.004-0.885l-1.158-0.006l0.006-1.269l-3.091-0.015   l-0.006,1.27l-1.159-0.006l-0.004,0.913l-0.945,0.056c-0.266,0.016-0.513,0.14-0.684,0.344c-0.014,0.017-0.027,0.035-0.04,0.053   c-0.143,0.196-0.208,0.438-0.181,0.681l0.183,1.602c-0.005,0.157-0.024,0.283-0.054,0.39c-0.07,0.264-0.2,0.392-0.307,0.468   c-0.445,0.32-1.271,0.335-2.058,0.237c-0.595-0.073-1.169-0.212-1.54-0.332c-0.51-0.229-0.765-0.6-0.883-0.981   c-0.193-0.629-0.018-1.288,0.015-1.397c0.113-0.367-0.001-0.765-0.29-1.017L13.684,24.643z M12.56,58.284v3.164v2.635   c-0.019,1.398-1.161,2.529-2.563,2.529c-1.414,0-2.564-1.15-2.564-2.564V55.11h5.127V58.284z M12.56,51.235H7.433V45.84   c0.329,0.348,0.687,0.588,1.08,0.73c0.283,0.104,0.56,0.149,0.832,0.149c1.171,0,2.243-0.852,3.216-1.667V51.235z M12.56,40.81   v1.756c-0.371,0.269-0.734,0.572-1.091,0.873c-0.793,0.667-1.781,1.499-2.293,1.312c-0.31-0.113-1.02-0.713-1.743-3.681   c-0.157-0.644-0.314-1.397-0.469-2.283c-0.227-1.3,1.234-2.841,4.083-4.38c0.888-0.479,1.908-0.959,3.057-1.432   c0.423-0.174,0.847-0.34,1.269-0.498C13.609,34.793,12.56,37.68,12.56,40.81z M22.816,88.903c0,2.293-1.865,4.158-4.158,4.158   c-2.294,0-4.16-1.865-4.16-4.158V68.315l8.318,3.646V88.903z M38.199,88.903c0,2.293-1.865,4.158-4.16,4.158   c-2.294,0-4.159-1.865-4.159-4.158V71.962l8.319-3.646V88.903z M38.199,65.864V66.2l-3.657,1.602l-4.662,2.043l-1.938,0.85   l-1.595,0.699l-1.595-0.699l-1.938-0.85l-4.662-2.043L14.498,66.2v-0.336V64.12c0.001-0.023,0.002-0.047,0.002-0.072v-2.6h8.316   h1.938h3.189h1.938h8.319V65.864z M38.199,58.284v1.227H29.88h-1.938h-3.189h-1.938H14.5v-4.168h8.316h1.938h3.189h1.938h8.319   V58.284z M38.199,47.788v4.452v1.166H29.88h-1.938h-3.189h-1.938H14.5v-9.718c0.006-0.001,0.004-0.007-0.002-0.015V43.09   l0.002-0.006V42.6l-0.002,0.002V40.81c0-3.126,1.219-5.972,3.203-8.091c0.961,0.273,3.492,0.836,5.025-0.261   c0.531-0.38,1.166-1.118,1.172-2.478c0-0.038-0.002-0.076-0.006-0.115l-0.072-0.633l-0.002-0.014l0.104-0.006l2.4-0.145   l2.502,0.174l-0.08,0.647c-0.005,0.038-0.008,0.076-0.008,0.114c-0.006,1.359,0.621,2.104,1.148,2.488   c0.692,0.506,1.594,0.67,2.463,0.674c1.137,0.006,2.215-0.263,2.691-0.4c1.959,2.114,3.161,4.941,3.161,8.044V47.788z    M45.283,64.048c0,1.414-1.15,2.564-2.564,2.564s-2.564-1.15-2.564-2.564V55.11h5.129V64.048z M45.283,51.235h-5.129v-6.184   c0.973,0.816,2.045,1.669,3.217,1.669c0.271,0,0.549-0.046,0.832-0.149c0.393-0.143,0.75-0.383,1.08-0.73V51.235z M45.752,38.787   c-0.154,0.886-0.312,1.64-0.469,2.283c-0.725,2.968-1.434,3.567-1.744,3.681c-0.512,0.188-1.498-0.645-2.293-1.312   c-0.357-0.302-0.721-0.606-1.092-0.874c-0.006-0.004-0.012-0.008-0.018-0.012V40.81c0-3.134-1.053-6.025-2.82-8.344   c0.43,0.163,0.863,0.332,1.295,0.509c1.148,0.473,2.17,0.952,3.057,1.432C44.518,35.946,45.979,37.487,45.752,38.787z"/>
</g>
<text x="0.0" y="117.5" font-size="5.0" font-weight="bold" font-family="Helvetica Neue, Helvetica, Arial-Unicode, Arial, Sans-serif" fill="#000000">Created by jon trillana</text><text x="0.0" y="122.5" font-size="5.0" font-weight="bold" font-family="Helvetica Neue, Helvetica, Arial-Unicode, Arial, Sans-serif" fill="#000000">from the Noun Project</text></svg>